<?xml version="1.0" standalone="no"?>
<!DOCTYPE svg PUBLIC "-//W3C//DTD SVG 20010904//EN"
 "http://www.w3.org/TR/2001/REC-SVG-20010904/DTD/svg10.dtd">
<svg version="1.0" xmlns="http://www.w3.org/2000/svg"
 width="270.000000pt" height="270.000000pt" viewBox="0 0 270.000000 270.000000"
 preserveAspectRatio="xMidYMid meet">
<metadata>
Created by potrace 1.14, written by Peter Selinger 2001-2017
</metadata>
<g transform="translate(0.000000,270.000000) scale(0.100000,-0.100000)"
fill="#000000" stroke="none">
<path d="M1310 2633 c-136 -41 -271 -56 -510 -56 -239 0 -371 12 -518 49 -35
9 -66 14 -68 11 -15 -14 -35 -274 -41 -507 -18 -778 124 -1287 458 -1644 137
-146 368 -318 580 -430 139 -73 150 -73 292 5 386 212 668 478 810 764 147
298 220 695 220 1200 -1 247 -24 589 -41 607 -4 4 -60 -4 -124 -17 -160 -32
-392 -49 -564 -41 -145 6 -337 34 -409 59 -34 11 -47 12 -85 0z m165 -91 c265
-55 585 -54 916 4 36 6 37 6 43 -32 14 -88 26 -321 26 -499 0 -372 -42 -679
-130 -946 -39 -118 -115 -289 -128 -288 -4 0 -67 83 -139 184 l-133 184 0 460
0 461 -180 0 -180 0 -2 -209 -3 -209 -305 420 c-168 231 -306 424 -308 429 -2
5 15 9 38 9 56 0 232 27 295 45 55 15 50 16 190 -13z m77 -997 l378 -520 -172
-3 c-95 -1 -177 -1 -183 2 -6 2 -98 124 -205 271 l-195 267 -3 -271 -2 -271
-180 0 -180 0 0 525 0 525 182 -2 182 -3 378 -520z"/>
</g>
</svg>
